<svg version="1.1" xmlns="http://www.w3.org/2000/svg" viewBox="0 0 1066.3999328613281 1485.961757730685" width="2132.7998657226562" height="2971.92351546137">
  <!-- svg-source:excalidraw -->

  <defs>
    <style>
      @font-face {
        font-family: "Virgil";
        src: url("https://excalidraw.com/Virgil.woff2");
      }
      @font-face {
        font-family: "Cascadia";
        src: url("https://excalidraw.com/Cascadia.woff2");
      }
    </style>
  </defs>
  <g stroke-linecap="round" transform="translate(661.2001037597656 190.199951171875) rotate(0 131.71919371715546 105.60004425048828)"><path d="M52.8 0 M52.8 0 C88.09 1.08, 112.93 2.08, 210.64 0 M52.8 0 C99.62 -1.74, 145.04 -2.84, 210.64 0 M210.64 0 C244.15 1.96, 261.84 17.3, 263.44 52.8 M210.64 0 C243.24 -0.24, 264.52 22.04, 263.44 52.8 M263.44 52.8 C261.4 82.67, 263.42 118.41, 263.44 158.4 M263.44 52.8 C266.88 88.17, 265.7 122.16, 263.44 158.4 M263.44 158.4 C264.81 194.25, 244.52 213.22, 210.64 211.2 M263.44 158.4 C259.05 192.98, 248.72 208.21, 210.64 211.2 M210.64 211.2 C176.19 206.09, 140.3 208.43, 52.8 211.2 M210.64 211.2 C153.48 212.84, 95.24 214.85, 52.8 211.2 M52.8 211.2 C20.36 208.05, -2.37 197.08, 0 158.4 M52.8 211.2 C17 210.04, 2.38 197.61, 0 158.4 M0 158.4 C-1.25 132.72, 3.44 108.95, 0 52.8 M0 158.4 C1.06 122.31, 0.51 88.3, 0 52.8 M0 52.8 C-2.95 20.81, 21.53 -1.06, 52.8 0 M0 52.8 C3.21 18.84, 14.92 -1.98, 52.8 0" stroke="#000000" stroke-width="1" fill="none"></path></g><g transform="translate(317.1997985839844 10) rotate(0 169 21.5)"><text x="0" y="35" font-family="Cascadia, Segoe UI Emoji" font-size="36px" fill="#364fc7" text-anchor="start" style="white-space: pre;" direction="ltr">CPU ARCHITECTURE</text></g><g transform="translate(10 147.7999267578125) rotate(0 243.5 201.5)"><text x="0" y="15.19047619047619" font-family="Cascadia, Segoe UI Emoji" font-size="16px" fill="#000000" text-anchor="start" style="white-space: pre;" direction="ltr">CPU (Central Process Unit) is the central process </text><text x="0" y="34.38095238095238" font-family="Cascadia, Segoe UI Emoji" font-size="16px" fill="#000000" text-anchor="start" style="white-space: pre;" direction="ltr">unit, which is made up of different cores. </text><text x="0" y="53.57142857142857" font-family="Cascadia, Segoe UI Emoji" font-size="16px" fill="#000000" text-anchor="start" style="white-space: pre;" direction="ltr"></text><text x="0" y="72.76190476190476" font-family="Cascadia, Segoe UI Emoji" font-size="16px" fill="#000000" text-anchor="start" style="white-space: pre;" direction="ltr">Back in the old days, the CPU used to be only</text><text x="0" y="91.95238095238095" font-family="Cascadia, Segoe UI Emoji" font-size="16px" fill="#000000" text-anchor="start" style="white-space: pre;" direction="ltr">one core but now, the number is incredibly </text><text x="0" y="111.14285714285714" font-family="Cascadia, Segoe UI Emoji" font-size="16px" fill="#000000" text-anchor="start" style="white-space: pre;" direction="ltr">increased reching 16, 32, 64 cores.</text><text x="0" y="130.33333333333331" font-family="Cascadia, Segoe UI Emoji" font-size="16px" fill="#000000" text-anchor="start" style="white-space: pre;" direction="ltr"></text><text x="0" y="149.52380952380952" font-family="Cascadia, Segoe UI Emoji" font-size="16px" fill="#000000" text-anchor="start" style="white-space: pre;" direction="ltr">Each core execute one operation at a time. So,</text><text x="0" y="168.71428571428572" font-family="Cascadia, Segoe UI Emoji" font-size="16px" fill="#000000" text-anchor="start" style="white-space: pre;" direction="ltr">at each timestamp, the maximum number of operations </text><text x="0" y="187.9047619047619" font-family="Cascadia, Segoe UI Emoji" font-size="16px" fill="#000000" text-anchor="start" style="white-space: pre;" direction="ltr">is equal to the number of cores.</text><text x="0" y="207.09523809523807" font-family="Cascadia, Segoe UI Emoji" font-size="16px" fill="#000000" text-anchor="start" style="white-space: pre;" direction="ltr">This operations are very low level operations. </text><text x="0" y="226.28571428571428" font-family="Cascadia, Segoe UI Emoji" font-size="16px" fill="#000000" text-anchor="start" style="white-space: pre;" direction="ltr">This phenomana is knwon as parallelism because</text><text x="0" y="245.47619047619048" font-family="Cascadia, Segoe UI Emoji" font-size="16px" fill="#000000" text-anchor="start" style="white-space: pre;" direction="ltr">given a specific instant, multiple operations</text><text x="0" y="264.66666666666663" font-family="Cascadia, Segoe UI Emoji" font-size="16px" fill="#000000" text-anchor="start" style="white-space: pre;" direction="ltr">occurs. </text><text x="0" y="283.85714285714283" font-family="Cascadia, Segoe UI Emoji" font-size="16px" fill="#000000" text-anchor="start" style="white-space: pre;" direction="ltr"></text><text x="0" y="303.04761904761904" font-family="Cascadia, Segoe UI Emoji" font-size="16px" fill="#000000" text-anchor="start" style="white-space: pre;" direction="ltr">The clock speed defines the number of operations</text><text x="0" y="322.23809523809524" font-family="Cascadia, Segoe UI Emoji" font-size="16px" fill="#000000" text-anchor="start" style="white-space: pre;" direction="ltr">which each core can perform in one second. It refers</text><text x="0" y="341.42857142857144" font-family="Cascadia, Segoe UI Emoji" font-size="16px" fill="#000000" text-anchor="start" style="white-space: pre;" direction="ltr">to the switch operation between 0/1 signal.</text><text x="0" y="360.6190476190476" font-family="Cascadia, Segoe UI Emoji" font-size="16px" fill="#000000" text-anchor="start" style="white-space: pre;" direction="ltr"></text><text x="0" y="379.8095238095238" font-family="Cascadia, Segoe UI Emoji" font-size="16px" fill="#000000" text-anchor="start" style="white-space: pre;" direction="ltr"></text><text x="0" y="399" font-family="Cascadia, Segoe UI Emoji" font-size="16px" fill="#000000" text-anchor="start" style="white-space: pre;" direction="ltr"></text></g><g stroke-linecap="round" transform="translate(689.8469553611208 213.22976905612768) rotate(0 41.56597879668078 35.948945079575196)"><path d="M2.29 7.29 C2.29 7.29, 2.29 7.29, 2.29 7.29 M2.29 7.29 C2.29 7.29, 2.29 7.29, 2.29 7.29 M4.39 17.07 C8.27 9.28, 15.34 3.26, 18.83 0.47 M4.39 17.07 C8.79 10.83, 15.65 5.95, 18.83 0.47 M4.53 29.11 C12.39 21.77, 19.27 14.47, 29.46 0.43 M4.53 29.11 C13.04 19.17, 22.1 9.16, 29.46 0.43 M4 41.91 C12.41 32.85, 22.09 21.77, 40.09 0.4 M4 41.91 C12.29 31.8, 21.28 22.99, 40.09 0.4 M0.2 58.47 C18.2 36.66, 36.52 16.02, 50.06 1.12 M0.2 58.47 C19.23 36.02, 39.21 12.97, 50.06 1.12 M4.27 65.99 C16.62 52.07, 30.7 37.44, 60.69 1.08 M4.27 65.99 C21.05 46.85, 38.02 28.27, 60.69 1.08 M9.65 71.99 C27.49 51.91, 42.96 33.52, 70.66 1.8 M9.65 71.99 C28.93 50.22, 48.83 27.75, 70.66 1.8 M17.66 74.97 C32.47 56.81, 45.75 39.26, 78.67 4.79 M17.66 74.97 C42.09 47.41, 66.84 20.37, 78.67 4.79 M28.29 74.94 C45.26 56.83, 63.38 33.66, 83.4 11.54 M28.29 74.94 C48.19 52.59, 66.42 31.47, 83.4 11.54 M38.92 74.91 C57.13 51.72, 76.06 31.08, 86.15 20.57 M38.92 74.91 C56.67 52.64, 76.79 30.85, 86.15 20.57 M49.55 74.87 C63.21 59.85, 76.72 46.15, 86.29 32.61 M49.55 74.87 C63.94 58.13, 78.46 40.39, 86.29 32.61 M59.52 75.59 C67.15 67.29, 73.55 58.21, 85.76 45.4 M59.52 75.59 C68.26 65.36, 78.18 54.54, 85.76 45.4 M73.43 71.78 C75.24 70.93, 79 66.66, 83.93 59.71 M73.43 71.78 C77.07 68.03, 80.54 63.78, 83.93 59.71" stroke="#7950f2" stroke-width="1" fill="none"></path><path d="M17.97 0 M17.97 0 C29.23 1.64, 40.13 2.34, 65.16 0 M17.97 0 C31.29 -0.9, 44.81 0.86, 65.16 0 M65.16 0 C75.78 -0.75, 82.84 7.53, 83.13 17.97 M65.16 0 C79.21 0.89, 85.06 4.49, 83.13 17.97 M83.13 17.97 C83.2 29.12, 84.82 37.73, 83.13 53.92 M83.13 17.97 C83.25 31.2, 82.09 46.07, 83.13 53.92 M83.13 53.92 C83.53 67.49, 76.6 72.41, 65.16 71.9 M83.13 53.92 C81.46 64.54, 78.19 70.18, 65.16 71.9 M65.16 71.9 C48.53 73.21, 37.3 69.86, 17.97 71.9 M65.16 71.9 C47.79 72.08, 30.31 71.66, 17.97 71.9 M17.97 71.9 C4.13 70.58, -0.45 64.03, 0 53.92 M17.97 71.9 C7.51 70.69, -1.89 66.31, 0 53.92 M0 53.92 C-1.26 46.22, -1.19 35.75, 0 17.97 M0 53.92 C-0.29 40.78, 0.13 27.73, 0 17.97 M0 17.97 C-0.9 5.31, 5.84 -1.17, 17.97 0 M0 17.97 C-1.16 4.79, 6.23 1.1, 17.97 0" stroke="#364fc7" stroke-width="2" fill="none"></path></g><g stroke-linecap="round" transform="translate(807.2426589958736 212.80849875903732) rotate(0 41.56597879668078 35.948945079575196)"><path d="M2.29 7.29 C2.29 7.29, 2.29 7.29, 2.29 7.29 M2.29 7.29 C2.29 7.29, 2.29 7.29, 2.29 7.29 M4.39 17.07 C9.84 11.32, 14.55 4.56, 18.83 0.47 M4.39 17.07 C9.68 11.43, 14.76 4.6, 18.83 0.47 M4.53 29.11 C11.81 21.6, 16.36 14.72, 29.46 0.43 M4.53 29.11 C11.4 23.1, 16.7 15.88, 29.46 0.43 M4 41.91 C16.19 27.79, 29.34 12.85, 40.09 0.4 M4 41.91 C15.61 27.22, 29.03 12.76, 40.09 0.4 M0.2 58.47 C12.73 42.71, 26.85 27.64, 50.06 1.12 M0.2 58.47 C13.95 43.38, 26.53 27.76, 50.06 1.12 M4.27 65.99 C18.05 47.87, 32.15 33.55, 60.69 1.08 M4.27 65.99 C21.26 45.31, 39.92 24.76, 60.69 1.08 M9.65 71.99 C29.46 50.57, 51.82 25.43, 70.66 1.8 M9.65 71.99 C26.58 51.11, 44.79 29.24, 70.66 1.8 M17.66 74.97 C34.71 55.58, 48.33 35.97, 78.67 4.79 M17.66 74.97 C39.9 48.99, 62.44 24.12, 78.67 4.79 M28.29 74.94 C48.1 50.2, 68.53 27.08, 83.4 11.54 M28.29 74.94 C42.69 60.61, 55.58 44.81, 83.4 11.54 M38.92 74.91 C54.39 56.4, 71.54 37.05, 86.15 20.57 M38.92 74.91 C56 55.97, 71.84 38.47, 86.15 20.57 M49.55 74.87 C62.4 58.54, 78.54 42.39, 86.29 32.61 M49.55 74.87 C61.28 59.96, 75.04 47.03, 86.29 32.61 M59.52 75.59 C67.97 64.84, 76.91 52.49, 85.76 45.4 M59.52 75.59 C65.2 68.37, 72.65 62.17, 85.76 45.4 M73.43 71.78 C76.18 66.5, 79.73 63.95, 83.93 59.71 M73.43 71.78 C78.21 66.36, 81.35 62.4, 83.93 59.71" stroke="#7950f2" stroke-width="1" fill="none"></path><path d="M17.97 0 M17.97 0 C28.76 1.56, 38.21 0.49, 65.16 0 M17.97 0 C27.95 -0.08, 40.23 -0.8, 65.16 0 M65.16 0 C75.29 1.58, 84.83 4.23, 83.13 17.97 M65.16 0 C78.96 1.7, 81.55 7.19, 83.13 17.97 M83.13 17.97 C81.6 29.25, 83.02 41.28, 83.13 53.92 M83.13 17.97 C83.12 30.82, 83.03 44.8, 83.13 53.92 M83.13 53.92 C81.9 67.85, 75.98 73, 65.16 71.9 M83.13 53.92 C84.7 65.54, 78.8 71.09, 65.16 71.9 M65.16 71.9 C49.69 71.34, 35.87 70.86, 17.97 71.9 M65.16 71.9 C53.87 72.13, 41.29 71.75, 17.97 71.9 M17.97 71.9 C7.7 71.46, 0.73 67.28, 0 53.92 M17.97 71.9 C8.19 71.76, -0.55 67.91, 0 53.92 M0 53.92 C1.99 40.61, -0.24 29.72, 0 17.97 M0 53.92 C0.65 42.68, 1.26 32.76, 0 17.97 M0 17.97 C1.91 5.11, 6 -1.3, 17.97 0 M0 17.97 C-0.92 7.26, 8.04 -1, 17.97 0" stroke="#364fc7" stroke-width="2" fill="none"></path></g><g stroke-linecap="round" transform="translate(695.0425902176903 306.47235305669074) rotate(0 41.56597879668078 35.948945079575196)"><path d="M2.29 7.29 C2.29 7.29, 2.29 7.29, 2.29 7.29 M2.29 7.29 C2.29 7.29, 2.29 7.29, 2.29 7.29 M4.39 17.07 C5.86 13.08, 10.72 10.07, 18.83 0.47 M4.39 17.07 C10.52 10.3, 16.74 4.22, 18.83 0.47 M4.53 29.11 C11.54 24.6, 14.7 17.23, 29.46 0.43 M4.53 29.11 C13.78 18.36, 21.74 7.98, 29.46 0.43 M4 41.91 C13.3 28.64, 22.18 19.8, 40.09 0.4 M4 41.91 C10.61 33.95, 18.23 25.87, 40.09 0.4 M0.2 58.47 C15.33 39.18, 32.1 20.23, 50.06 1.12 M0.2 58.47 C12.12 45.82, 22.56 32.83, 50.06 1.12 M4.27 65.99 C16.02 52.44, 27.02 41.32, 60.69 1.08 M4.27 65.99 C19.56 48.18, 36.11 31.81, 60.69 1.08 M9.65 71.99 C26.78 53.16, 44.16 33.68, 70.66 1.8 M9.65 71.99 C25.43 54.42, 42.94 36.11, 70.66 1.8 M17.66 74.97 C41.85 46.4, 64.41 18.09, 78.67 4.79 M17.66 74.97 C41.33 49.12, 65.72 21.89, 78.67 4.79 M28.29 74.94 C48.27 49.97, 71.34 28.5, 83.4 11.54 M28.29 74.94 C49.14 48.79, 72.15 23.1, 83.4 11.54 M38.92 74.91 C50.88 62.3, 60.22 49.42, 86.15 20.57 M38.92 74.91 C50.16 63.01, 60.82 48.19, 86.15 20.57 M49.55 74.87 C64.7 60.65, 75.68 44.18, 86.29 32.61 M49.55 74.87 C61.09 59.38, 74.67 44.3, 86.29 32.61 M59.52 75.59 C69.64 64.11, 79.08 54.68, 85.76 45.4 M59.52 75.59 C66.04 69.22, 71.59 62.06, 85.76 45.4 M73.43 71.78 C76.65 67.86, 78.44 65.25, 83.93 59.71 M73.43 71.78 C76.11 69.31, 78.7 65.74, 83.93 59.71" stroke="#7950f2" stroke-width="1" fill="none"></path><path d="M17.97 0 M17.97 0 C31.95 1.48, 46.37 -0.01, 65.16 0 M17.97 0 C30.77 -0.05, 44.98 -0.96, 65.16 0 M65.16 0 C76.82 -0.99, 83.12 4.43, 83.13 17.97 M65.16 0 C77.61 0.85, 82.06 8.24, 83.13 17.97 M83.13 17.97 C83.48 28.82, 82.67 43.38, 83.13 53.92 M83.13 17.97 C82.42 31.24, 83.93 46.52, 83.13 53.92 M83.13 53.92 C82.41 65.54, 78.94 71.31, 65.16 71.9 M83.13 53.92 C80.88 66.39, 77.76 73.19, 65.16 71.9 M65.16 71.9 C50.59 69.96, 38.52 71.71, 17.97 71.9 M65.16 71.9 C53.3 72.82, 42.66 72.65, 17.97 71.9 M17.97 71.9 C7.1 70.74, 0.23 64.89, 0 53.92 M17.97 71.9 C4.46 73.84, 0.52 66.71, 0 53.92 M0 53.92 C-0.18 45.41, -0.26 36.46, 0 17.97 M0 53.92 C0.06 43.19, -0.65 34.68, 0 17.97 M0 17.97 C-0.75 6.61, 4.86 1.95, 17.97 0 M0 17.97 C-0.32 5.73, 4.26 0, 17.97 0" stroke="#364fc7" stroke-width="2" fill="none"></path></g><g stroke-linecap="round" transform="translate(812.2980311243882 305.2085100245604) rotate(0 41.56597879668078 35.948945079575196)"><path d="M2.29 7.29 C2.29 7.29, 2.29 7.29, 2.29 7.29 M2.29 7.29 C2.29 7.29, 2.29 7.29, 2.29 7.29 M4.39 17.07 C8.44 11.46, 10.61 7.35, 18.83 0.47 M4.39 17.07 C9.58 11.11, 14.39 4.67, 18.83 0.47 M4.53 29.11 C10.29 23.85, 14.81 14.58, 29.46 0.43 M4.53 29.11 C14.23 20.11, 21.7 9.52, 29.46 0.43 M4 41.91 C12.49 33.13, 19.74 21.32, 40.09 0.4 M4 41.91 C12.5 33.64, 20.38 24.36, 40.09 0.4 M0.2 58.47 C12.08 41.72, 29.3 25.79, 50.06 1.12 M0.2 58.47 C14.27 43.43, 27.29 27.34, 50.06 1.12 M4.27 65.99 C19.56 51.59, 35.61 34.41, 60.69 1.08 M4.27 65.99 C27.08 40.09, 47.93 15.62, 60.69 1.08 M9.65 71.99 C29.12 48.26, 46.92 28.19, 70.66 1.8 M9.65 71.99 C22.73 54.74, 37.86 40.69, 70.66 1.8 M17.66 74.97 C28.65 60.7, 43.96 46.63, 78.67 4.79 M17.66 74.97 C36.91 52.79, 56.61 31.55, 78.67 4.79 M28.29 74.94 C40.36 62.29, 50.96 49.43, 83.4 11.54 M28.29 74.94 C41.11 59.94, 54.26 43.97, 83.4 11.54 M38.92 74.91 C52.6 58.26, 66.63 40.7, 86.15 20.57 M38.92 74.91 C50.75 60.88, 62.08 48.6, 86.15 20.57 M49.55 74.87 C61.53 62.74, 69.36 52.85, 86.29 32.61 M49.55 74.87 C62.46 60.35, 73.21 47.07, 86.29 32.61 M59.52 75.59 C68.36 65.56, 77.44 58.21, 85.76 45.4 M59.52 75.59 C69.38 63.25, 80.96 52.61, 85.76 45.4 M73.43 71.78 C74.88 70.27, 79.63 65.07, 83.93 59.71 M73.43 71.78 C75.5 68.58, 79.45 65.46, 83.93 59.71" stroke="#7950f2" stroke-width="1" fill="none"></path><path d="M17.97 0 M17.97 0 C31.04 -1.36, 46.6 0.39, 65.16 0 M17.97 0 C28.89 0.04, 41.04 -0.13, 65.16 0 M65.16 0 C78.25 -1.16, 83.36 4.98, 83.13 17.97 M65.16 0 C75.61 1.94, 83.65 6.8, 83.13 17.97 M83.13 17.97 C82.51 27.69, 82.43 36.96, 83.13 53.92 M83.13 17.97 C83.36 27.28, 82.66 38.8, 83.13 53.92 M83.13 53.92 C82.39 66.52, 76.01 73.85, 65.16 71.9 M83.13 53.92 C82.81 65.64, 75.41 71.9, 65.16 71.9 M65.16 71.9 C50.78 69.69, 33.67 71.06, 17.97 71.9 M65.16 71.9 C51.06 72.44, 36.74 72.48, 17.97 71.9 M17.97 71.9 C6.79 71.25, -1.6 67.32, 0 53.92 M17.97 71.9 C5.86 72.02, -0.34 64.07, 0 53.92 M0 53.92 C0.53 43.46, 1.34 29.03, 0 17.97 M0 53.92 C0.07 43.71, 0.1 34.48, 0 17.97 M0 17.97 C-0.81 6.51, 4.02 -0.58, 17.97 0 M0 17.97 C0.55 4.78, 5.86 -0.02, 17.97 0" stroke="#364fc7" stroke-width="2" fill="none"></path></g><g transform="translate(1008.3999328613281 221.62675755198416) rotate(0 24 12)"><text x="0" y="19" font-family="Cascadia, Segoe UI Emoji" font-size="20px" fill="#364fc7" text-anchor="start" style="white-space: pre;" direction="ltr">Core</text></g><g stroke-linecap="round"><g transform="translate(859.6594400577555 236.16173942013756) rotate(0 66.05690407382417 0.004114284872912322)"><path d="M0.83 0.43 C22.61 0.5, 108.64 0.99, 130.2 0.74 M-0.2 -0.39 C21.98 -0.65, 110.2 -0.84, 132.31 -0.79" stroke="#364fc7" stroke-width="2" fill="none"></path></g><g transform="translate(859.6594400577555 236.16173942013756) rotate(0 66.05690407382417 0.004114284872912322)"><path d="M104.84 7.59 C113.22 4.72, 117.44 4.83, 132.48 -1.94 M104.2 9.79 C112.35 6.51, 121.02 2.79, 132.56 -0.95" stroke="#364fc7" stroke-width="2" fill="none"></path></g><g transform="translate(859.6594400577555 236.16173942013756) rotate(0 66.05690407382417 0.004114284872912322)"><path d="M104.83 -12.94 C113.26 -10.54, 117.49 -5.16, 132.48 -1.94 M104.19 -10.73 C112.31 -8.1, 120.99 -5.91, 132.56 -0.95" stroke="#364fc7" stroke-width="2" fill="none"></path></g></g><g transform="translate(13.259415643693274 654.4617272131063) rotate(0 234.5 125)"><text x="0" y="15.23076923076923" font-family="Cascadia, Segoe UI Emoji" font-size="16px" fill="#000000" text-anchor="start" style="white-space: pre;" direction="ltr">Thread is one programm or a set of operations that</text><text x="0" y="34.46153846153846" font-family="Cascadia, Segoe UI Emoji" font-size="16px" fill="#000000" text-anchor="start" style="white-space: pre;" direction="ltr">will happen. Each thread is assigned to one core.</text><text x="0" y="53.69230769230769" font-family="Cascadia, Segoe UI Emoji" font-size="16px" fill="#000000" text-anchor="start" style="white-space: pre;" direction="ltr"></text><text x="0" y="72.92307692307692" font-family="Cascadia, Segoe UI Emoji" font-size="16px" fill="#000000" text-anchor="start" style="white-space: pre;" direction="ltr">Let's assume that two threads are assigned to the</text><text x="0" y="92.15384615384615" font-family="Cascadia, Segoe UI Emoji" font-size="16px" fill="#000000" text-anchor="start" style="white-space: pre;" direction="ltr">same core, which is able to process only one </text><text x="0" y="111.38461538461539" font-family="Cascadia, Segoe UI Emoji" font-size="16px" fill="#000000" text-anchor="start" style="white-space: pre;" direction="ltr">thread at a time. So, in order to execute both</text><text x="0" y="130.6153846153846" font-family="Cascadia, Segoe UI Emoji" font-size="16px" fill="#000000" text-anchor="start" style="white-space: pre;" direction="ltr">of them, the core switch between the threads </text><text x="0" y="149.84615384615384" font-family="Cascadia, Segoe UI Emoji" font-size="16px" fill="#000000" text-anchor="start" style="white-space: pre;" direction="ltr">and execute some operations of each: it's</text><text x="0" y="169.07692307692307" font-family="Cascadia, Segoe UI Emoji" font-size="16px" fill="#000000" text-anchor="start" style="white-space: pre;" direction="ltr">called threading. Basically, threading means</text><text x="0" y="188.3076923076923" font-family="Cascadia, Segoe UI Emoji" font-size="16px" fill="#000000" text-anchor="start" style="white-space: pre;" direction="ltr">to switch different threads in the same core.</text><text x="0" y="207.53846153846152" font-family="Cascadia, Segoe UI Emoji" font-size="16px" fill="#000000" text-anchor="start" style="white-space: pre;" direction="ltr">This mechanism is also kowns as  concurrent</text><text x="0" y="226.76923076923077" font-family="Cascadia, Segoe UI Emoji" font-size="16px" fill="#000000" text-anchor="start" style="white-space: pre;" direction="ltr">programming which doesn't occur in parallel.</text><text x="0" y="246" font-family="Cascadia, Segoe UI Emoji" font-size="16px" fill="#000000" text-anchor="start" style="white-space: pre;" direction="ltr"></text></g><g stroke-linecap="round" transform="translate(659.4596109561933 678.3117333166228) rotate(0 131.71919371715546 105.60004425048828)"><path d="M52.8 0 M52.8 0 C87.14 -2.69, 122.05 1.9, 210.64 0 M52.8 0 C86.6 -3.91, 117.89 -2.86, 210.64 0 M210.64 0 C245.67 -3.73, 264.63 20.24, 263.44 52.8 M210.64 0 C246.61 -0.39, 263.06 13.88, 263.44 52.8 M263.44 52.8 C266.65 83.33, 260.46 117.24, 263.44 158.4 M263.44 52.8 C259.87 81.71, 260.62 112.1, 263.44 158.4 M263.44 158.4 C259.92 194.82, 243.6 208.25, 210.64 211.2 M263.44 158.4 C261.27 191.33, 242.09 212.82, 210.64 211.2 M210.64 211.2 C160.49 214.86, 115.89 212.67, 52.8 211.2 M210.64 211.2 C161.99 206.94, 108.24 208.97, 52.8 211.2 M52.8 211.2 C21.32 207.84, -0.38 196.15, 0 158.4 M52.8 211.2 C15.86 210.09, -0.51 190.1, 0 158.4 M0 158.4 C4.27 128.77, 4.47 96.63, 0 52.8 M0 158.4 C-3.93 137.96, -0.18 115.04, 0 52.8 M0 52.8 C-0.32 21.59, 14.49 1.24, 52.8 0 M0 52.8 C-3.88 13.8, 18.09 0.63, 52.8 0" stroke="#000000" stroke-width="1" fill="none"></path></g><g stroke-linecap="round" transform="translate(688.1064625575484 701.3415512008751) rotate(0 41.56597879668078 35.948945079575196)"><path d="M2.29 7.29 C2.29 7.29, 2.29 7.29, 2.29 7.29 M2.29 7.29 C2.29 7.29, 2.29 7.29, 2.29 7.29 M4.39 17.07 C7.66 13.37, 10.15 8.49, 18.83 0.47 M4.39 17.07 C9.53 11.83, 12.31 7.44, 18.83 0.47 M4.53 29.11 C10.03 20.12, 17.83 12.57, 29.46 0.43 M4.53 29.11 C8.99 22.7, 14.52 16.27, 29.46 0.43 M4 41.91 C16.83 26.67, 29.46 14.05, 40.09 0.4 M4 41.91 C14.07 30.02, 25.57 15.6, 40.09 0.4 M0.2 58.47 C16.55 40.53, 33.05 19.14, 50.06 1.12 M0.2 58.47 C14.58 41.62, 30.27 25.81, 50.06 1.12 M4.27 65.99 C27.93 41.69, 45.97 17.28, 60.69 1.08 M4.27 65.99 C27.74 39.55, 49.39 13.78, 60.69 1.08 M9.65 71.99 C22.06 58.27, 34.94 41.02, 70.66 1.8 M9.65 71.99 C30.77 46.52, 53.23 21.63, 70.66 1.8 M17.66 74.97 C42.07 46.68, 67.03 17.9, 78.67 4.79 M17.66 74.97 C37.5 52.77, 57 30.6, 78.67 4.79 M28.29 74.94 C42.21 56.69, 57.58 40.73, 83.4 11.54 M28.29 74.94 C41.58 61.81, 52.49 47.1, 83.4 11.54 M38.92 74.91 C51.24 58.41, 67.94 42.63, 86.15 20.57 M38.92 74.91 C52.85 58.38, 66.24 42.49, 86.15 20.57 M49.55 74.87 C59.94 63.72, 69.05 51.38, 86.29 32.61 M49.55 74.87 C58.97 65.11, 68.1 54.05, 86.29 32.61 M59.52 75.59 C68.4 65.13, 76.96 54.34, 85.76 45.4 M59.52 75.59 C69.45 65.85, 78.05 54.74, 85.76 45.4 M73.43 71.78 C77.89 66.14, 81.6 61.75, 83.93 59.71 M73.43 71.78 C75.83 68.81, 80.54 64.12, 83.93 59.71" stroke="#7950f2" stroke-width="1" fill="none"></path><path d="M17.97 0 M17.97 0 C28.5 -0.32, 41.29 -0.3, 65.16 0 M17.97 0 C29.08 -0.19, 39.71 -0.44, 65.16 0 M65.16 0 C77.74 1.79, 84.23 4.78, 83.13 17.97 M65.16 0 C75.34 2.01, 81.48 5.42, 83.13 17.97 M83.13 17.97 C82.61 27.34, 81.33 33.57, 83.13 53.92 M83.13 17.97 C82.12 30.81, 82.28 42.65, 83.13 53.92 M83.13 53.92 C81.33 67.33, 78.05 71.43, 65.16 71.9 M83.13 53.92 C82.69 63.76, 78.36 71.27, 65.16 71.9 M65.16 71.9 C48.16 70.59, 30.65 70.61, 17.97 71.9 M65.16 71.9 C49.07 71.16, 33.72 71.07, 17.97 71.9 M17.97 71.9 C4.73 72.02, -0.89 66.63, 0 53.92 M17.97 71.9 C5.67 73.39, 1.14 64.3, 0 53.92 M0 53.92 C0.8 42.15, -0.16 33.04, 0 17.97 M0 53.92 C0.66 42.19, -1.12 30.98, 0 17.97 M0 17.97 C0.84 5.64, 4.49 0.58, 17.97 0 M0 17.97 C-0.71 4.07, 4.2 1.47, 17.97 0" stroke="#364fc7" stroke-width="2" fill="none"></path></g><g stroke-linecap="round" transform="translate(805.5021661923013 700.9202809037852) rotate(0 41.56597879668078 35.948945079575196)"><path d="M2.29 7.29 C2.29 7.29, 2.29 7.29, 2.29 7.29 M2.29 7.29 C2.29 7.29, 2.29 7.29, 2.29 7.29 M4.39 17.07 C8.87 11.4, 12.19 6.08, 18.83 0.47 M4.39 17.07 C8.42 11.28, 13.29 6.9, 18.83 0.47 M4.53 29.11 C9.01 22.13, 14.92 15.23, 29.46 0.43 M4.53 29.11 C12.45 19.33, 20.34 10.7, 29.46 0.43 M4 41.91 C13.5 30.62, 25.58 17.12, 40.09 0.4 M4 41.91 C16.45 28.39, 26.36 16.13, 40.09 0.4 M0.2 58.47 C21.55 35.23, 39.39 13.22, 50.06 1.12 M0.2 58.47 C11.08 46.69, 22.99 33.9, 50.06 1.12 M4.27 65.99 C23.86 42.14, 43.25 24.43, 60.69 1.08 M4.27 65.99 C19.43 47.46, 35.24 28.06, 60.69 1.08 M9.65 71.99 C30.14 49.25, 47.1 29.72, 70.66 1.8 M9.65 71.99 C31.69 46.74, 54.34 21.09, 70.66 1.8 M17.66 74.97 C32.04 58.56, 45.89 41.59, 78.67 4.79 M17.66 74.97 C40.09 49.8, 62.48 23.73, 78.67 4.79 M28.29 74.94 C42.7 56.82, 59.39 37.63, 83.4 11.54 M28.29 74.94 C44.21 56.84, 58.52 39.78, 83.4 11.54 M38.92 74.91 C57.56 54.74, 76.88 32.12, 86.15 20.57 M38.92 74.91 C49.45 61.57, 60.58 48.86, 86.15 20.57 M49.55 74.87 C59.47 63.5, 68.16 50.28, 86.29 32.61 M49.55 74.87 C58.61 65.44, 66.4 54.75, 86.29 32.61 M59.52 75.59 C67.36 65.95, 74.84 58.49, 85.76 45.4 M59.52 75.59 C68.36 66.29, 75.79 58.19, 85.76 45.4 M73.43 71.78 C75.13 68.9, 78.1 64.8, 83.93 59.71 M73.43 71.78 C78.16 68.04, 81.2 62.29, 83.93 59.71" stroke="#7950f2" stroke-width="1" fill="none"></path><path d="M17.97 0 M17.97 0 C28.14 -0.9, 38.57 -1.18, 65.16 0 M17.97 0 C28.46 0.65, 38.73 -0.05, 65.16 0 M65.16 0 C78.93 1.1, 81.92 4.43, 83.13 17.97 M65.16 0 C79.15 -1.65, 82.56 4.05, 83.13 17.97 M83.13 17.97 C84.97 27.93, 83.45 42.79, 83.13 53.92 M83.13 17.97 C83.4 27.57, 82.53 37.9, 83.13 53.92 M83.13 53.92 C84.55 66.81, 76.67 71.51, 65.16 71.9 M83.13 53.92 C80.98 67.12, 76.51 73.61, 65.16 71.9 M65.16 71.9 C48.15 72.87, 32.11 72.55, 17.97 71.9 M65.16 71.9 C51.61 70.78, 38.34 70.91, 17.97 71.9 M17.97 71.9 C6.12 71, 0.72 65.63, 0 53.92 M17.97 71.9 C7.48 73.04, -1.61 65.29, 0 53.92 M0 53.92 C-1.9 43.23, -1.2 33.13, 0 17.97 M0 53.92 C-0.59 39.44, -0.63 27.05, 0 17.97 M0 17.97 C-0.35 4.49, 6.57 -0.62, 17.97 0 M0 17.97 C-1.93 4.2, 7.47 1.6, 17.97 0" stroke="#364fc7" stroke-width="2" fill="none"></path></g><g stroke-linecap="round" transform="translate(693.302097414118 794.5841352014377) rotate(0 41.56597879668078 35.948945079575196)"><path d="M2.29 7.29 C2.29 7.29, 2.29 7.29, 2.29 7.29 M2.29 7.29 C2.29 7.29, 2.29 7.29, 2.29 7.29 M4.39 17.07 C9.48 9.39, 14.92 4.88, 18.83 0.47 M4.39 17.07 C7.85 12.45, 12.72 6.32, 18.83 0.47 M4.53 29.11 C10.87 20.67, 17.25 13.47, 29.46 0.43 M4.53 29.11 C10.33 21.41, 17.26 15.22, 29.46 0.43 M4 41.91 C14.35 31.36, 22.49 21.32, 40.09 0.4 M4 41.91 C14.79 28.24, 26.78 17.25, 40.09 0.4 M0.2 58.47 C10.26 45.29, 21.56 31.87, 50.06 1.12 M0.2 58.47 C16.16 41.98, 31.08 24.71, 50.06 1.12 M4.27 65.99 C13.28 53.74, 28.51 39.11, 60.69 1.08 M4.27 65.99 C20.41 46.63, 35.74 28.63, 60.69 1.08 M9.65 71.99 C27.89 49.11, 49.32 28.86, 70.66 1.8 M9.65 71.99 C31.19 48.03, 52.32 23.67, 70.66 1.8 M17.66 74.97 C33.69 55.81, 49.15 40.76, 78.67 4.79 M17.66 74.97 C32.08 58.85, 45.67 41.72, 78.67 4.79 M28.29 74.94 C44.74 56.07, 60.09 36.68, 83.4 11.54 M28.29 74.94 C40.87 58.96, 54.57 44.68, 83.4 11.54 M38.92 74.91 C52.31 61.5, 63.2 46.03, 86.15 20.57 M38.92 74.91 C50.52 60.51, 62.73 47.32, 86.15 20.57 M49.55 74.87 C57.1 64.56, 62.83 56.87, 86.29 32.61 M49.55 74.87 C62.22 60.27, 73.66 47.3, 86.29 32.61 M59.52 75.59 C65.77 67.16, 74.21 59.97, 85.76 45.4 M59.52 75.59 C64.82 69.33, 71.34 62.14, 85.76 45.4 M73.43 71.78 C77.64 66.36, 80.63 64.96, 83.93 59.71 M73.43 71.78 C78.01 67.23, 80.57 62.6, 83.93 59.71" stroke="#7950f2" stroke-width="1" fill="none"></path><path d="M17.97 0 M17.97 0 C31.6 -0.16, 46.26 -1.49, 65.16 0 M17.97 0 C34.82 -0.26, 49.97 0.9, 65.16 0 M65.16 0 C78.24 -1.21, 81.57 7.74, 83.13 17.97 M65.16 0 C75.49 -0.57, 81.19 6.69, 83.13 17.97 M83.13 17.97 C81.1 31.11, 84.09 43.86, 83.13 53.92 M83.13 17.97 C81.97 29.53, 81.88 43.31, 83.13 53.92 M83.13 53.92 C84.04 65.44, 76.76 70.03, 65.16 71.9 M83.13 53.92 C84.35 65.28, 78.85 72.82, 65.16 71.9 M65.16 71.9 C55.31 70.73, 44.32 71.26, 17.97 71.9 M65.16 71.9 C53.8 71.25, 43.36 71.78, 17.97 71.9 M17.97 71.9 C5.1 72.62, -0.28 67.2, 0 53.92 M17.97 71.9 C7.13 70.29, -0.62 65.73, 0 53.92 M0 53.92 C-0.33 42.48, 0.08 35.14, 0 17.97 M0 53.92 C-1.18 42.25, 0.08 31.6, 0 17.97 M0 17.97 C-1.5 6.57, 5.38 -1.67, 17.97 0 M0 17.97 C-1.79 7.47, 7.59 -0.39, 17.97 0" stroke="#364fc7" stroke-width="2" fill="none"></path></g><g stroke-linecap="round" transform="translate(810.5575383208159 793.3202921693082) rotate(0 41.56597879668078 35.948945079575196)"><path d="M2.29 7.29 C2.29 7.29, 2.29 7.29, 2.29 7.29 M2.29 7.29 C2.29 7.29, 2.29 7.29, 2.29 7.29 M4.39 17.07 C7.36 11.81, 13.5 6.55, 18.83 0.47 M4.39 17.07 C10.25 10.66, 14.61 4.35, 18.83 0.47 M4.53 29.11 C9.54 21.43, 15.79 16.02, 29.46 0.43 M4.53 29.11 C9.49 23.1, 15.93 15.81, 29.46 0.43 M4 41.91 C16.26 27.88, 28.97 13.85, 40.09 0.4 M4 41.91 C10.22 34.13, 19.17 24.46, 40.09 0.4 M0.2 58.47 C13.84 41.78, 27.28 25.3, 50.06 1.12 M0.2 58.47 C13.51 44.36, 26.02 27.94, 50.06 1.12 M4.27 65.99 C27.77 42.49, 48.89 14.48, 60.69 1.08 M4.27 65.99 C26.49 39.03, 50 14.04, 60.69 1.08 M9.65 71.99 C24.63 55.15, 42.32 36.54, 70.66 1.8 M9.65 71.99 C27.34 52.22, 44.61 30.44, 70.66 1.8 M17.66 74.97 C33.88 55.09, 54.18 33.19, 78.67 4.79 M17.66 74.97 C40.17 48.95, 61.69 23.85, 78.67 4.79 M28.29 74.94 C42.36 57.51, 55.85 42.05, 83.4 11.54 M28.29 74.94 C49.7 49.82, 72.85 24.08, 83.4 11.54 M38.92 74.91 C50.12 62.13, 59.24 49.03, 86.15 20.57 M38.92 74.91 C51.75 59.48, 65.72 43.6, 86.15 20.57 M49.55 74.87 C60.14 59.24, 73.34 46.72, 86.29 32.61 M49.55 74.87 C61.48 60.21, 75.07 44.62, 86.29 32.61 M59.52 75.59 C66.61 67.91, 74.94 56.21, 85.76 45.4 M59.52 75.59 C69.04 65.58, 77.67 54.8, 85.76 45.4 M73.43 71.78 C75.76 67.67, 82.1 64.22, 83.93 59.71 M73.43 71.78 C75.31 68.81, 77.13 66.69, 83.93 59.71" stroke="#7950f2" stroke-width="1" fill="none"></path><path d="M17.97 0 M17.97 0 C27.68 -1.29, 36.28 1.03, 65.16 0 M17.97 0 C35.32 -0.17, 54.09 0.08, 65.16 0 M65.16 0 C75.93 -1.56, 84.88 4.56, 83.13 17.97 M65.16 0 C76.57 -1.94, 83.83 7.44, 83.13 17.97 M83.13 17.97 C83.52 28.7, 83.22 38.14, 83.13 53.92 M83.13 17.97 C82.42 24.37, 83.88 33.02, 83.13 53.92 M83.13 53.92 C82.67 65.52, 75.27 72.96, 65.16 71.9 M83.13 53.92 C82.51 67.62, 78.07 70.2, 65.16 71.9 M65.16 71.9 C48.5 72.59, 33.3 70.58, 17.97 71.9 M65.16 71.9 C54.06 70.91, 43.97 71.09, 17.97 71.9 M17.97 71.9 C6.71 71.62, 1.29 66.9, 0 53.92 M17.97 71.9 C4.39 71.28, -0.18 65.52, 0 53.92 M0 53.92 C-0.9 41.97, 1.94 29.75, 0 17.97 M0 53.92 C-0.4 40.16, 0.03 24.81, 0 17.97 M0 17.97 C0.58 5.38, 4.32 -1.55, 17.97 0 M0 17.97 C1.47 7.59, 5.61 0.64, 17.97 0" stroke="#364fc7" stroke-width="2" fill="none"></path></g><g stroke-linecap="round"><g transform="translate(728.4596719913495 608.7617455236536) rotate(0.27067146750582977 1.285133526474226 42.61948202560188)"><path d="M-0.75 0.32 C-0.36 14.68, 2.53 71.77, 3.32 85.8 M1.06 -0.56 C1.21 13.45, 2 69.48, 2.44 83.78" stroke="#a61e4d" stroke-width="2" fill="none"></path></g><g transform="translate(728.4596719913495 608.7617455236536) rotate(0.27067146750582977 1.285133526474226 42.61948202560188)"><path d="M-7.89 56.01 C-4.03 67.9, -2.01 78.18, 3.05 83.17 M-9.09 56.76 C-5.06 64.77, 0.03 75.45, 1.85 82.87" stroke="#a61e4d" stroke-width="2" fill="none"></path></g><g transform="translate(728.4596719913495 608.7617455236536) rotate(0.27067146750582977 1.285133526474226 42.61948202560188)"><path d="M12.63 55.58 C8.66 67.5, 2.85 77.95, 3.05 83.17 M11.42 56.33 C8.41 64.39, 6.45 75.22, 1.85 82.87" stroke="#a61e4d" stroke-width="2" fill="none"></path></g></g><g stroke-linecap="round"><g transform="translate(629.8595132999432 697.9617424718963) rotate(271.7846576293946 2.3277260871883527 43.00887861028309)"><path d="M0.81 -0.66 C1.37 13.68, 1.93 72.14, 2.52 86.68 M-0.22 1.61 C0.81 15.58, 4.14 71.27, 4.87 85.12" stroke="#a61e4d" stroke-width="2" fill="none"></path></g><g transform="translate(629.8595132999432 697.9617424718963) rotate(271.7846576293946 2.3277260871883527 43.00887861028309)"><path d="M-8.08 56.42 C-2.31 65.74, 0.18 71.72, 3.19 86.01 M-7.29 58.19 C-4.15 63.85, -1.31 69.96, 5.78 86.11" stroke="#a61e4d" stroke-width="2" fill="none"></path></g><g transform="translate(629.8595132999432 697.9617424718963) rotate(271.7846576293946 2.3277260871883527 43.00887861028309)"><path d="M12.41 55.25 C13.46 64.98, 11.23 71.23, 3.19 86.01 M13.2 57.02 C11.56 63.13, 9.63 69.51, 5.78 86.11" stroke="#a61e4d" stroke-width="2" fill="none"></path></g></g><g transform="translate(749.259598749162 628.4617577306849) rotate(0 29 9.5)"><text x="0" y="15" font-family="Cascadia, Segoe UI Emoji" font-size="16px" fill="#a61e4d" text-anchor="start" style="white-space: pre;" direction="ltr">Thread</text></g><g transform="translate(586.659562128068 706.0617638342005) rotate(0 29 9.5)"><text x="0" y="15" font-family="Cascadia, Segoe UI Emoji" font-size="16px" fill="#a61e4d" text-anchor="start" style="white-space: pre;" direction="ltr">Thread</text></g><g transform="translate(20.759537714005774 1014.9617577306849) rotate(0 225.5 230.5)"><text x="0" y="15.208333333333332" font-family="Cascadia, Segoe UI Emoji" font-size="16px" fill="#000000" text-anchor="start" style="white-space: pre;" direction="ltr">Let's suppose that we want to execute</text><text x="0" y="34.416666666666664" font-family="Cascadia, Segoe UI Emoji" font-size="16px" fill="#000000" text-anchor="start" style="white-space: pre;" direction="ltr">the following lines of code:</text><text x="0" y="53.625" font-family="Cascadia, Segoe UI Emoji" font-size="16px" fill="#000000" text-anchor="start" style="white-space: pre;" direction="ltr"></text><text x="0" y="72.83333333333333" font-family="Cascadia, Segoe UI Emoji" font-size="16px" fill="#000000" text-anchor="start" style="white-space: pre;" direction="ltr">print(1)</text><text x="0" y="92.04166666666666" font-family="Cascadia, Segoe UI Emoji" font-size="16px" fill="#000000" text-anchor="start" style="white-space: pre;" direction="ltr">time.sleep(10)</text><text x="0" y="111.25" font-family="Cascadia, Segoe UI Emoji" font-size="16px" fill="#000000" text-anchor="start" style="white-space: pre;" direction="ltr">print(2)</text><text x="0" y="130.45833333333331" font-family="Cascadia, Segoe UI Emoji" font-size="16px" fill="#000000" text-anchor="start" style="white-space: pre;" direction="ltr"></text><text x="0" y="149.66666666666666" font-family="Cascadia, Segoe UI Emoji" font-size="16px" fill="#000000" text-anchor="start" style="white-space: pre;" direction="ltr">This program can be splitted into two</text><text x="0" y="168.875" font-family="Cascadia, Segoe UI Emoji" font-size="16px" fill="#000000" text-anchor="start" style="white-space: pre;" direction="ltr">different threads in the same core (assuming</text><text x="0" y="188.08333333333331" font-family="Cascadia, Segoe UI Emoji" font-size="16px" fill="#000000" text-anchor="start" style="white-space: pre;" direction="ltr">that there is only one core).</text><text x="0" y="207.29166666666666" font-family="Cascadia, Segoe UI Emoji" font-size="16px" fill="#000000" text-anchor="start" style="white-space: pre;" direction="ltr"></text><text x="0" y="226.5" font-family="Cascadia, Segoe UI Emoji" font-size="16px" fill="#000000" text-anchor="start" style="white-space: pre;" direction="ltr">So, the first thread can contain</text><text x="0" y="245.70833333333331" font-family="Cascadia, Segoe UI Emoji" font-size="16px" fill="#000000" text-anchor="start" style="white-space: pre;" direction="ltr">print(1) and time.sleep(), while the second</text><text x="0" y="264.91666666666663" font-family="Cascadia, Segoe UI Emoji" font-size="16px" fill="#000000" text-anchor="start" style="white-space: pre;" direction="ltr">is made up of onlt the third line of code.</text><text x="0" y="284.125" font-family="Cascadia, Segoe UI Emoji" font-size="16px" fill="#000000" text-anchor="start" style="white-space: pre;" direction="ltr">So, in this way, the core doesn't wait </text><text x="0" y="303.3333333333333" font-family="Cascadia, Segoe UI Emoji" font-size="16px" fill="#000000" text-anchor="start" style="white-space: pre;" direction="ltr">for the time.sleep() operation but</text><text x="0" y="322.54166666666663" font-family="Cascadia, Segoe UI Emoji" font-size="16px" fill="#000000" text-anchor="start" style="white-space: pre;" direction="ltr">execute the second thread.</text><text x="0" y="341.75" font-family="Cascadia, Segoe UI Emoji" font-size="16px" fill="#000000" text-anchor="start" style="white-space: pre;" direction="ltr"></text><text x="0" y="360.9583333333333" font-family="Cascadia, Segoe UI Emoji" font-size="16px" fill="#000000" text-anchor="start" style="white-space: pre;" direction="ltr">This is a simple example but it's very effective</text><text x="0" y="380.16666666666663" font-family="Cascadia, Segoe UI Emoji" font-size="16px" fill="#000000" text-anchor="start" style="white-space: pre;" direction="ltr">in game application: indeed, it's undesired</text><text x="0" y="399.375" font-family="Cascadia, Segoe UI Emoji" font-size="16px" fill="#000000" text-anchor="start" style="white-space: pre;" direction="ltr">that the game screening freeze until the server</text><text x="0" y="418.5833333333333" font-family="Cascadia, Segoe UI Emoji" font-size="16px" fill="#000000" text-anchor="start" style="white-space: pre;" direction="ltr">returns some data. </text><text x="0" y="437.79166666666663" font-family="Cascadia, Segoe UI Emoji" font-size="16px" fill="#000000" text-anchor="start" style="white-space: pre;" direction="ltr"></text><text x="0" y="457" font-family="Cascadia, Segoe UI Emoji" font-size="16px" fill="#000000" text-anchor="start" style="white-space: pre;" direction="ltr">Some CPUs can be used as well: multi-processing.</text></g><g stroke-linecap="round" transform="translate(743.9935772278717 1118.562777555895) rotate(0 70.76592996855572 62.34893897605957)"><path d="M4.59 11.94 C4.59 11.94, 4.59 11.94, 4.59 11.94 M4.59 11.94 C4.59 11.94, 4.59 11.94, 4.59 11.94 M2.76 26.25 C9.63 17.7, 15.34 9.72, 21.12 5.11 M2.76 26.25 C5.98 22.27, 10.92 17.08, 21.12 5.11 M2.89 38.29 C14.81 24.54, 24.68 12.82, 33.72 2.81 M2.89 38.29 C9.94 29.3, 18.54 20.4, 33.72 2.81 M3.02 50.33 C12.64 40.53, 21.92 28.98, 44.35 2.78 M3.02 50.33 C14.38 35.57, 26.84 21.11, 44.35 2.78 M3.15 62.37 C17.27 46.11, 30.97 27.96, 54.98 2.75 M3.15 62.37 C20.42 42.26, 39.39 20.08, 54.98 2.75 M2.63 75.16 C24.15 51.69, 46.26 24.48, 65.61 2.71 M2.63 75.16 C28.15 46.92, 52.5 19.66, 65.61 2.71 M2.76 87.2 C20.56 63.92, 41.24 42.18, 76.24 2.68 M2.76 87.2 C18.5 70.37, 32.55 51.59, 76.24 2.68 M0.93 101.51 C21.24 79.3, 42.64 54.27, 86.87 2.64 M0.93 101.51 C31.83 66.01, 64.31 29.91, 86.87 2.64 M4.34 109.78 C29.26 76.36, 57.73 47.48, 97.5 2.61 M4.34 109.78 C33.01 77.77, 62.22 43.57, 97.5 2.61 M8.41 117.29 C30.61 92.19, 53.75 63.54, 108.13 2.57 M8.41 117.29 C43.06 77.23, 77.6 36.69, 108.13 2.57 M15.11 121.78 C44.96 87.95, 75.29 51.95, 119.42 1.78 M15.11 121.78 C38.76 94.37, 62.24 68.25, 119.42 1.78 M21.8 126.28 C62.48 82.52, 101.62 35.15, 127.43 4.77 M21.8 126.28 C46.76 96.21, 74.56 65.87, 127.43 4.77 M29.81 129.26 C62.13 93.56, 92.93 56.78, 134.78 8.51 M29.81 129.26 C57.94 97.34, 85.23 64.72, 134.78 8.51 M40.44 129.23 C70.96 93.83, 97.52 60.73, 138.84 16.02 M40.44 129.23 C78.94 86.72, 117.19 42.75, 138.84 16.02 M51.07 129.19 C84.95 90.84, 116.19 53.89, 144.23 22.02 M51.07 129.19 C87.53 87.37, 124.83 45.58, 144.23 22.02 M61.7 129.16 C87.25 100.15, 114.28 67.29, 144.36 34.06 M61.7 129.16 C81.85 105.5, 102.76 80.32, 144.36 34.06 M71.67 129.88 C99.3 98.11, 126.83 65.89, 144.49 46.1 M71.67 129.88 C94.89 102.62, 118.22 77.69, 144.49 46.1 M82.3 129.84 C106.08 104.54, 131.37 73.61, 144.63 58.15 M82.3 129.84 C94.57 115.57, 107.58 101.41, 144.63 58.15 M92.93 129.81 C106.21 113.89, 122.52 98.37, 144.1 70.94 M92.93 129.81 C104.3 115.91, 115.69 102.4, 144.1 70.94 M103.56 129.77 C115.11 117.13, 127.45 103.87, 144.24 82.98 M103.56 129.77 C116.63 113.13, 131.28 98.01, 144.24 82.98 M114.85 128.99 C122.88 120.75, 132.61 110.87, 144.37 95.02 M114.85 128.99 C121.89 121.44, 129.57 113.3, 144.37 95.02" stroke="#7950f2" stroke-width="1" fill="none"></path><path d="M31.17 0 M31.17 0 C54.21 -1.67, 74.12 -0.8, 110.36 0 M31.17 0 C60.56 -0.58, 90.84 1.09, 110.36 0 M110.36 0 C133.07 -0.44, 143.47 12.15, 141.53 31.17 M110.36 0 C131.62 1, 140.28 11.07, 141.53 31.17 M141.53 31.17 C140.31 53.47, 140.21 70.75, 141.53 93.52 M141.53 31.17 C142.19 56.08, 142.35 78.88, 141.53 93.52 M141.53 93.52 C141.45 114.79, 129.28 126.62, 110.36 124.7 M141.53 93.52 C141.63 112.78, 132.66 123.82, 110.36 124.7 M110.36 124.7 C94.32 123.27, 74.5 123.79, 31.17 124.7 M110.36 124.7 C88.18 124.08, 67.82 123.87, 31.17 124.7 M31.17 124.7 C8.72 123.06, 0.53 112.54, 0 93.52 M31.17 124.7 C9.88 125.75, -2.16 114.96, 0 93.52 M0 93.52 C0.14 76.63, 0.36 62.1, 0 31.17 M0 93.52 C1.08 81.06, -0.62 67.37, 0 31.17 M0 31.17 C1.52 11.45, 11.99 -1.26, 31.17 0 M0 31.17 C-0.21 12.08, 9.42 2.23, 31.17 0" stroke="#364fc7" stroke-width="2" fill="none"></path></g><g stroke-linecap="round"><g transform="translate(804.0584881701378 1017.3117638342005) rotate(0.27067146750582977 1.7524476208817532 43.37351589898117)"><path d="M0.41 0.92 C0.71 15.34, 1.77 72.18, 2.17 86.38 M-0.83 0.36 C-0.2 14.45, 3.89 70.72, 4.34 84.67" stroke="#a61e4d" stroke-width="2" fill="none"></path></g><g transform="translate(804.0584881701378 1017.3117638342005) rotate(0.27067146750582977 1.7524476208817532 43.37351589898117)"><path d="M-5.92 55.36 C-2.27 65.52, 1.22 73.68, 6.31 85.23 M-6.8 56.33 C-3.36 67.73, 2.71 79.07, 4.32 84.07" stroke="#a61e4d" stroke-width="2" fill="none"></path></g><g transform="translate(804.0584881701378 1017.3117638342005) rotate(0.27067146750582977 1.7524476208817532 43.37351589898117)"><path d="M14.57 54.24 C11.43 64.83, 8.14 73.38, 6.31 85.23 M13.69 55.21 C8.95 67.25, 6.84 79.05, 4.32 84.07" stroke="#a61e4d" stroke-width="2" fill="none"></path></g></g><g transform="translate(824.8584149279503 1037.0117760412318) rotate(0 57.00000000000006 19)"><text x="0" y="16" font-family="Cascadia, Segoe UI Emoji" font-size="16px" fill="#a61e4d" text-anchor="start" style="white-space: pre;" direction="ltr">print(1)</text><text x="0" y="35" font-family="Cascadia, Segoe UI Emoji" font-size="16px" fill="#a61e4d" text-anchor="start" style="white-space: pre;" direction="ltr">time.sleep()</text></g><g stroke-linecap="round"><g transform="translate(676.9595804386151 1135.1118279211141) rotate(271.7846576293946 1.1092873461311683 42.32808851559662)"><path d="M0.31 -0.3 C0.95 13.8, 2.53 70.76, 3.21 84.96 M-0.99 -1.5 C-0.44 12.72, 1.39 71.6, 2.26 86.16" stroke="#a61e4d" stroke-width="2" fill="none"></path></g><g transform="translate(676.9595804386151 1135.1118279211141) rotate(271.7846576293946 1.1092873461311683 42.32808851559662)"><path d="M-9.71 58.45 C-7.38 67.2, -4.66 70.97, 3.95 87.66 M-8.86 58.19 C-5.56 67.35, -2.82 76.85, 2.3 85.5" stroke="#a61e4d" stroke-width="2" fill="none"></path></g><g transform="translate(676.9595804386151 1135.1118279211141) rotate(271.7846576293946 1.1092873461311683 42.32808851559662)"><path d="M10.79 57.56 C8.09 66.58, 5.78 70.57, 3.95 87.66 M11.64 57.3 C8.45 66.94, 4.69 76.71, 2.3 85.5" stroke="#a61e4d" stroke-width="2" fill="none"></path></g></g><g transform="translate(635.9595804386151 1132.8117943517786) rotate(0 38 9.5)"><text x="0" y="15" font-family="Cascadia, Segoe UI Emoji" font-size="16px" fill="#a61e4d" text-anchor="start" style="white-space: pre;" direction="ltr">print(2)</text></g></svg>
